<?xml version="1.0" encoding="utf-8"?>
<!-- Generator: Adobe Illustrator 19.1.1, SVG Export Plug-In . SVG Version: 6.00 Build 0)  -->
<svg version="1.1" xmlns="http://www.w3.org/2000/svg" xmlns:xlink="http://www.w3.org/1999/xlink" x="0px" y="0px"
	 viewBox="0 0 78.3 73" style="enable-background:new 0 0 78.3 73;" xml:space="preserve">
<style type="text/css">
	.st0{fill:none;stroke:#41507F;stroke-width:2;stroke-linecap:round;stroke-linejoin:round;stroke-miterlimit:10;}
	
		.st1{fill-rule:evenodd;clip-rule:evenodd;fill:none;stroke:#41507F;stroke-width:2;stroke-linecap:round;stroke-linejoin:round;stroke-miterlimit:10;}
	.st2{fill:#5A5654;}
</style>
<g id="Layer_1">
	<path class="st1" d="M19.6,72c0,0-2.4-30.7,1.5-51.1C23.7,9,30.8,0.4,43.5,1.9c14.9,3.4,19.7,17.3,18.9,52.8"/>
	<path class="st0" d="M53.8,29.3c0.2,2.6,1.5,13.3-5.4,18.5c-5,3.7-8.6,3.7-12.3,1.5"/>
	<path class="st0" d="M29.1,29.4c0,0-0.6,8.9,2.1,12.8c3.2,4.7,7.1,8.2,4.8,14.9c-2.2,6.7-2.8,12.3-2.1,13.8"/>
	<path class="st0" d="M18.4,53.7c0,0-7.3,0.7-11.8,5.6c-4.1,4.9-4.1,10.4-4.1,11.6"/>
	<path class="st0" d="M50,46.4v7.4c0,0,0.1,0.5,0.8,0.4s4.5-0.9,7.6-0.4c0,0,7.3,0.7,11.8,5.6c4.1,4.9,4.1,10.4,4.1,11.6"/>
	<path class="st0" d="M53.8,55.1c0,4.9-5.5,8.8-12.3,8.8c-2.7,0-5-0.3-7-1.4"/>
	<circle class="st0" cx="48.6" cy="29.2" r="5.2"/>
	<circle class="st0" cx="34.4" cy="29.2" r="5.2"/>
	<path class="st0" d="M39.5,30c0.4-0.7,1.1-1.1,1.9-1.1c0.8,0,1.5,0.4,1.9,1"/>
</g>
<g id="Layer_2">
</g>
<g id="Layer_3">
</g>
</svg>
