<svg width="473" height="297" viewBox="0 0 473 297" xmlns="http://www.w3.org/2000/svg"><path d="M69.793 183.092h.022c9.613 9.635 22.247 14.456 34.853 14.478v-.048h.027c16.996.015 31.987-8.563 40.886-21.627.04-.04.069-.08.109-.12.722-1.082 1.367-2.194 2.008-3.331.168-.287.352-.564.512-.852.519-.973.977-1.979 1.423-2.944.242-.503.49-.999.694-1.491.35-.838.622-1.702.944-2.569.239-.685.519-1.359.724-2.055.207-.729.367-1.461.561-2.187.198-.856.444-1.712.622-2.572.115-.591.177-1.195.285-1.789.14-1.017.33-2.023.43-3.051.036-.284.036-.553.046-.838 1.107-13.912-3.639-28.209-14.29-38.861l.027-.027c-8.919-8.939-21.263-14.46-34.871-14.479-.024-.015-.024 0-.024-.015L104.901 0h.022c54.244.053 101.636 29.298 127.379 72.84.055.095.119.189.152.269a163.687 163.687 0 013.407 6.082c.051.12.109.246.18.363.071.142.151.284.226.433.397-.769.813-1.537 1.23-2.31.142-.286.323-.574.481-.858a126.507 126.507 0 013.179-5.51c.06-.104.146-.207.197-.317a148.85 148.85 0 0121.711-27.618c57.838-57.828 151.645-57.837 209.475.006l.015.013-69.805 69.815c-.007-.006-.007-.006-.007-.013-9.644-9.64-22.248-14.447-34.877-14.481v.06c-.009-.006-.009 0-.009 0-17.008-.016-32.007 8.549-40.896 21.62-.035.038-.052.08-.102.125-.718 1.065-1.372 2.196-2.021 3.32-.16.286-.352.565-.503.866-.534.947-.978 1.953-1.434 2.944-.226.497-.492.987-.678 1.487-.353.838-.65 1.707-.94 2.559-.246.689-.523 1.369-.729 2.065-.222.707-.377 1.443-.568 2.183-.219.847-.457 1.701-.627 2.576-.122.59-.182 1.188-.277 1.786-.165 1.02-.34 2.029-.441 3.039-.021.269-.021.572-.031.845-1.102 13.916 3.626 28.226 14.27 38.852 0 0 .022 0 .022.022l-.049.029c8.937 8.928 21.264 14.452 34.886 14.456h.034l-.129 98.748c-.011-.007-.011 0-.011 0-54.265-.054-101.64-29.319-127.39-72.847-.049-.098-.119-.189-.17-.28a136.981 136.981 0 01-3.381-6.078c-.064-.113-.128-.241-.195-.365-.066-.135-.135-.284-.214-.43-.397.773-.828 1.545-1.24 2.296-.151.306-.334.59-.481.889a141.353 141.353 0 01-3.189 5.484c-.043.124-.116.226-.178.324a148.134 148.134 0 01-21.726 27.629C151.621 310.749 57.841 310.756 0 252.904l69.793-69.812" fill="#FFF" fill-rule="evenodd"/></svg>