<?xml version="1.0" encoding="utf-8"?>
<!-- Generator: Adobe Illustrator 19.1.1, SVG Export Plug-In . SVG Version: 6.00 Build 0)  -->
<svg version="1.1" xmlns="http://www.w3.org/2000/svg" xmlns:xlink="http://www.w3.org/1999/xlink" x="0px" y="0px"
	 viewBox="0 0 108.5 152.5" style="enable-background:new 0 0 108.5 152.5;" xml:space="preserve">
<style type="text/css">
	.st0{fill:none;stroke:#4A992A;stroke-width:2;stroke-linecap:round;stroke-linejoin:round;stroke-miterlimit:10;}
	
		.st1{fill-rule:evenodd;clip-rule:evenodd;fill:none;stroke:#4A992A;stroke-width:2;stroke-linecap:round;stroke-linejoin:round;stroke-miterlimit:10;}
	.st2{fill:#5A5654;}
</style>
<g id="Layer_1">
	<g>
		<g>
			<g>
				<path class="st0" d="M96.1,24.6C91.4,19.9,84.9,17,77.7,17c-14.3,0-25.9,11.6-25.9,25.9c0,7,2.8,13.4,7.3,18L96.1,24.6z"/>
				<path class="st0" d="M70.2,50c1.8,1.8,4.2,2.9,6.9,2.9c5.3,0,9.7-4.3,9.7-9.7c0-2.6-1.1-5-2.8-6.8"/>
				<path class="st0" d="M55.7,6.4c-2-2.3-4.9-3.8-8.2-3.8c-5.9,0-10.7,4.8-10.7,10.7c0,2.9,1.2,5.6,3.1,7.5L55.7,6.4z"/>
				<line class="st0" x1="55.7" y1="6.4" x2="68.2" y2="18.5"/>
				<line class="st0" x1="40" y1="20.8" x2="53.2" y2="33.3"/>
				<circle class="st0" cx="18.1" cy="58.4" r="5.8"/>
				<circle class="st0" cx="61.5" cy="109.8" r="5.8"/>
				<line class="st0" x1="16.3" y1="52.9" x2="43.7" y2="24.2"/>
				<line class="st0" x1="22.7" y1="54.8" x2="47.5" y2="28.9"/>
				<line class="st0" x1="57.1" y1="106.1" x2="16.3" y2="64.2"/>
				<line class="st0" x1="63.7" y1="104" x2="22.9" y2="62.1"/>
				<path class="st0" d="M85.3,146.5c0-7.2-5.9-13.1-13.1-13.1H56.4c-7.2,0-13.1,5.9-13.1,13.1l0,0H85.3z"/>
				<line class="st0" x1="61.5" y1="115.6" x2="61.5" y2="133.4"/>
				<line class="st0" x1="67.3" y1="109.8" x2="67.3" y2="133.4"/>
			</g>
			<line class="st0" x1="87.1" y1="53" x2="94.2" y2="60.6"/>
			<line class="st0" x1="92.4" y1="44.5" x2="102.6" y2="44.9"/>
			<line class="st0" x1="78.9" y1="59" x2="78.5" y2="69.3"/>
		</g>
	</g>
</g>
<g id="Layer_2">
</g>
<g id="Layer_3">
</g>
</svg>
