<?xml version="1.0" encoding="utf-8"?>
<!-- Generator: Adobe Illustrator 19.1.1, SVG Export Plug-In . SVG Version: 6.00 Build 0)  -->
<svg version="1.1" xmlns="http://www.w3.org/2000/svg" xmlns:xlink="http://www.w3.org/1999/xlink" x="0px" y="0px"
	 viewBox="0 0 77 76.1" style="enable-background:new 0 0 77 76.1;" xml:space="preserve">
<style type="text/css">
	.st0{fill:none;stroke:#0093D3;stroke-width:2;stroke-linecap:round;stroke-linejoin:round;stroke-miterlimit:10;}
	
		.st1{fill-rule:evenodd;clip-rule:evenodd;fill:none;stroke:#0093D3;stroke-width:2;stroke-linecap:round;stroke-linejoin:round;stroke-miterlimit:10;}
	.st2{fill:#5A5654;}
</style>
<g id="Layer_1">
</g>
<g id="Layer_2">
</g>
<g id="Layer_3">
	<g>
		<g>
			<path class="st0" d="M19.9,58.8l-9.8,12.6 M67.5,12.9l6.3,3.1L68.1,20 M32.7,58.7l6.9,12.9 M41.3,57.7l7.4,13.8 M62,12.3
				c0,1.6-1.3,2.9-2.9,2.9c-1.6,0-2.9-1.3-2.9-2.9 M57.7,28c0,0,2.3,18.6-19.1,21.9c-12.3,1.9-23.4-8.2-23.4-8.2 M3.5,71.7L18,52.6
				C30.5,35.3,52.1,8.7,54.6,5.4c3.4-4.6,10.9-2.1,12.2,3.2c1.3,5.3,2.9,24.2-1.7,32.6c0,0-8.3,17.9-38.9,17.5l-9.2,13.1H3.5z"/>
		</g>
	</g>
</g>
</svg>
